/* XPM */
static char * i_rollup_xpm[] = {
"28 28 4 1",
" 	c None",
".	c #1B1B1B",
"+	c #1A1A1A",
"@	c #434343",
"............................",
"++++++++++++++++++++++++++++",
"++++++++++++++++++++++++++++",
"++++++++++++++++++++++++++++",
"++++++++++++++++++++++++++++",
"++++++++++++++++++++++++++++",
"++++++++++++++++++++++++++++",
"++++++++++++++++++++++++++++",
"++++++++@@@@@@@@@@@@++++++++",
"++++++++@@@@@@@@@@@@++++++++",
"++++++++++++++++++++++++++++",
"++++++++++++++++++++++++++++",
"+++++++++++++@@+++++++++++++",
"++++++++++++@@@@++++++++++++",
"+++++++++++@@++@@+++++++++++",
"++++++++++@@++++@@++++++++++",
"+++++++++@@++++++@@+++++++++",
"++++++++@@++++++++@@++++++++",
"++++++++@++++++++++@++++++++",
"++++++++++++++++++++++++++++",
"++++++++++++++++++++++++++++",
"++++++++++++++++++++++++++++",
"++++++++++++++++++++++++++++",
"++++++++++++++++++++++++++++",
"++++++++++++++++++++++++++++",
"++++++++++++++++++++++++++++",
"++++++++++++++++++++++++++++",
"++++++++++++++++++++++++++++"};
