/* XPM */
static char * n_close_xpm[] = {
"28 28 4 1",
" 	c None",
".	c #333333",
"+	c #323232",
"@	c #FFFFFF",
"............................",
"++++++++++++++++++++++++++++",
"++++++++++++++++++++++++++++",
"++++++++++++++++++++++++++++",
"++++++++++++++++++++++++++++",
"++++++++++++++++++++++++++++",
"++++++++++++++++++++++++++++",
"++++++++++++++++++++++++++++",
"++++++++@@@++++++@@@++++++++",
"++++++++@@@@++++@@@@++++++++",
"++++++++@@@@@++@@@@@++++++++",
"+++++++++@@@@@@@@@@+++++++++",
"++++++++++@@@@@@@@++++++++++",
"+++++++++++@@@@@@+++++++++++",
"+++++++++++@@@@@@+++++++++++",
"++++++++++@@@@@@@@++++++++++",
"+++++++++@@@@@@@@@@+++++++++",
"++++++++@@@@@++@@@@@++++++++",
"++++++++@@@@++++@@@@++++++++",
"++++++++@@@++++++@@@++++++++",
"++++++++++++++++++++++++++++",
"++++++++++++++++++++++++++++",
"++++++++++++++++++++++++++++",
"++++++++++++++++++++++++++++",
"++++++++++++++++++++++++++++",
"++++++++++++++++++++++++++++",
"++++++++++++++++++++++++++++",
"++++++++++++++++++++++++++++"};
