/* XPM */
static char * na_rollup_xpm[] = {
"28 28 7 1",
" 	c None",
".	c #333333",
"+	c #323232",
"@	c #4A4A4A",
"#	c #646464",
"$	c #989898",
"%	c #FFFFFF",
"............................",
"++++++++++++++++++++++++++++",
"++++++++++++++++++++++++++++",
"++++++++++++++++++++++++++++",
"+++++++@@@@@@@@@@@@@@+++++++",
"++++++@@@@@@@@@@@@@@@@++++++",
"+++++@@@############@@@+++++",
"++++@@@#$$$$$$$$$$$$#@@@++++",
"++++@@#$%%%%%%%%%%%%$#@@++++",
"++++@@#$%%%%%%%%%%%%$#@@++++",
"++++@@@#$$$$$$$$$$$$#@@@++++",
"+++++@@@#####$$#####@@@+++++",
"++++++@@@@@#$%%$#@@@@@++++++",
"++++++@@@@#$%%%%$#@@@@++++++",
"++++++@@@#$%%$$%%$#@@@++++++",
"+++++@@@#$%%$##$%%$#@@@+++++",
"++++@@@#$%%$#@@#$%%$#@@@++++",
"++++@@#$%%$#@@@@#$%%$#@@++++",
"++++@@#$%$#@@@@@@#$%$#@@++++",
"++++@@@#$#@@@@@@@@#$#@@@++++",
"+++++@@@#@@@++++@@@#@@@+++++",
"++++++@@@@@++++++@@@@@++++++",
"+++++++@@@++++++++@@@+++++++",
"++++++++++++++++++++++++++++",
"++++++++++++++++++++++++++++",
"++++++++++++++++++++++++++++",
"++++++++++++++++++++++++++++",
"++++++++++++++++++++++++++++"};
